<svg xmlns="http://www.w3.org/2000/svg" viewBox="0 0 200 300" fill="none">
  <!-- Bottle silhouette -->
  <path d="M85 40 C85 30, 80 25, 80 15 C80 8, 85 5, 100 5 C115 5, 120 8, 120 15 C120 25, 115 30, 115 40 L115 60 C130 70, 140 90, 140 120 L140 250 C140 265, 130 275, 115 275 L85 275 C70 275, 60 265, 60 250 L60 120 C60 90, 70 70, 85 60 Z" fill="#E5E7EB" stroke="#D1D5DB" stroke-width="1.5"/>
  <!-- Cap -->
  <rect x="88" y="2" width="24" height="8" rx="2" fill="#D1D5DB"/>
  <!-- Label area -->
  <rect x="68" y="130" width="64" height="80" rx="6" fill="#F3F4F6" stroke="#D1D5DB" stroke-width="1"/>
  <!-- Small bottle icon inside label -->
  <path d="M94 155 C94 152, 93 151, 93 148 C93 146, 94 145, 100 145 C106 145, 107 146, 107 148 C107 151, 106 152, 106 155 L106 160 C110 163, 112 168, 112 174 L112 190 C112 193, 110 195, 107 195 L93 195 C90 195, 88 193, 88 190 L88 174 C88 168, 90 163, 94 160 Z" fill="none" stroke="#9CA3AF" stroke-width="1.5" stroke-linecap="round"/>
  <!-- Question mark -->
  <text x="100" y="185" text-anchor="middle" font-family="system-ui, sans-serif" font-size="16" font-weight="600" fill="#9CA3AF">?</text>
</svg>
